<?xml version="1.0" encoding="UTF-8" standalone="no"?>
<!-- Created with Inkscape (http://www.inkscape.org/) -->

<svg
   width="210mm"
   height="210mm"
   viewBox="0 0 210 210"
   version="1.1"
   id="svg1"
   xml:space="preserve"
   sodipodi:docname="LennektroLogoHalo.svg"
   inkscape:version="1.4 (e7c3feb100, 2024-10-09)"
   xmlns:inkscape="http://www.inkscape.org/namespaces/inkscape"
   xmlns:sodipodi="http://sodipodi.sourceforge.net/DTD/sodipodi-0.dtd"
   xmlns="http://www.w3.org/2000/svg"
   xmlns:svg="http://www.w3.org/2000/svg"><sodipodi:namedview
     id="namedview1"
     pagecolor="#505050"
     bordercolor="#eeeeee"
     borderopacity="1"
     inkscape:showpageshadow="0"
     inkscape:pageopacity="0"
     inkscape:pagecheckerboard="0"
     inkscape:deskcolor="#505050"
     inkscape:document-units="mm"
     inkscape:zoom="0.70710678"
     inkscape:cx="321.73359"
     inkscape:cy="437.6991"
     inkscape:window-width="1920"
     inkscape:window-height="1131"
     inkscape:window-x="1680"
     inkscape:window-y="32"
     inkscape:window-maximized="1"
     inkscape:current-layer="layer2" /><defs
     id="defs1" /><g
     inkscape:groupmode="layer"
     id="layer1"
     inkscape:label="Background"
     transform="matrix(1.4138898,0,0,1.3321501,-45.809615,-26.533542)"
     style="display:none"><ellipse
       style="fill:#000000;fill-rule:evenodd;stroke:none;stroke-width:1.69267"
       id="path25"
       cx="106.89167"
       cy="98.821869"
       rx="73.805214"
       ry="78.327515" /></g><g
     inkscape:groupmode="layer"
     id="layer2"
     inkscape:label="Logo"
     transform="matrix(0.77572632,0,0,0.77713375,24.026863,28.322219)"><path
       id="path24"
       style="fill:none;stroke:#ffffff;stroke-width:4.87742;stroke-linejoin:round"
       inkscape:label="Frame"
       d="M 2.0950662,127.13608 A 106.50605,106.50605 0 0 1 -1.7362518,98.826401 106.50605,106.50605 0 0 1 104.7698,-7.6796494 106.50605,106.50605 0 0 1 211.27585,98.826401 v 0 A 106.50605,106.50605 0 0 1 104.7698,205.33245 106.50605,106.50605 0 0 1 91.078052,204.44872"
       transform="translate(-1.6792688e-6)" /><path
       style="display:inline;fill:none;fill-opacity:1;stroke:#ffffff;stroke-width:2.965;stroke-linecap:butt;stroke-linejoin:round;stroke-dasharray:none;stroke-opacity:1;paint-order:normal"
       d="m 80.055314,63.708806 c 3.334414,-4.284464 6.199086,-8.089045 10.156867,-13.010335 2.735297,-2.993537 5.949086,-5.953113 9.219965,-8.908637 2.798104,-1.842628 5.678824,-3.876014 7.905954,-4.400238 2.44501,-1.077161 5.01031,-1.36661 7.62606,-1.813151 6.08017,0.05614 6.07499,0.318717 7.93811,0.579536 3.01993,0.748041 5.96736,1.822832 8.81372,3.07454 2.38312,1.12288 4.76057,2.310903 7.12515,3.646964 2.28163,1.497508 4.55923,2.910863 6.73766,4.516243 1.77632,1.408939 3.55884,2.80885 5.25592,4.333348 1.69686,1.616463 3.37138,3.183381 5.1334,4.944299 1.65292,1.803502 2.9713,3.443387 4.3916,5.133121 0.99738,1.453318 2.00413,2.914092 2.92385,4.305679 1.3194,2.066393 2.01346,3.81398 2.83394,5.626015 1.07345,2.666626 1.18484,5.060646 1.82953,7.633965 0.21104,4.739006 -0.38078,5.887784 -0.95402,8.278993 -1.0534,3.739716 -1.63305,5.007347 -2.82519,7.103207 -1.26774,2.284319 -2.17041,3.678395 -3.1491,5.257835 -1.68415,2.41114 -3.40503,4.50947 -5.11817,6.67374 -1.96784,2.19404 -4.2879,4.62065 -5.8384,6.53913 -1.51462,1.53096 -2.45774,2.98412 -3.6275,4.4155"
       id="path11"
       sodipodi:nodetypes="ccccccccccccccccccccc"
       inkscape:label="Brace"
       transform="translate(-1.6792688e-6)" /><path
       style="display:inline;fill:none;fill-opacity:1;stroke:#ffffff;stroke-width:1.6;stroke-dasharray:none;stroke-opacity:1"
       d="M -1.8939412,156.81471 102.7529,49.117413 103.465,70.860789 134.4159,97.891953 155.91063,95.596098 63.74572,213.5203"
       id="path1"
       inkscape:label="BaseBodyOutline" /><ellipse
       style="display:inline;fill:#ffffff;fill-opacity:1;stroke:none;stroke-width:1.6;stroke-dasharray:none;stroke-opacity:1"
       id="path6"
       ry="23.391439"
       rx="23.374348"
       cy="114.30299"
       cx="92.438515"
       inkscape:label="EyeBall" /><ellipse
       style="display:inline;fill:#000000;stroke-width:0.307099"
       id="path2"
       cx="97.903091"
       cy="118.34655"
       rx="6.4419522"
       ry="7.3616829"
       inkscape:label="Pupil" /><path
       style="display:inline;fill:none;fill-opacity:1;stroke:#ffffff;stroke-width:14.8005;stroke-linecap:butt;stroke-linejoin:miter;stroke-dasharray:none;stroke-opacity:1"
       d="M 53.28248,84.716286 77.906139,59.631026"
       id="path3"
       inkscape:label="RightSpeaker" /><path
       style="display:inline;fill:none;fill-opacity:1;stroke:#ffffff;stroke-width:6.96245;stroke-linecap:butt;stroke-linejoin:miter;stroke-dasharray:none;stroke-opacity:1"
       d="M 51.741815,68.892364 63.175763,57.74308"
       id="path5"
       inkscape:label="RightSpeakerAppendix" /><path
       style="display:inline;fill:none;fill-opacity:1;stroke:#ffffff;stroke-width:14.9399;stroke-linecap:butt;stroke-linejoin:miter;stroke-dasharray:none;stroke-opacity:1"
       d="m 129.20025,146.1455 21.73226,-27.88388"
       id="path4"
       inkscape:label="LeftSpeaker" /><path
       style="display:inline;fill:none;fill-opacity:1;stroke:#ffffff;stroke-width:6.63786;stroke-linecap:butt;stroke-linejoin:miter;stroke-dasharray:none;stroke-opacity:1"
       d="m 145.0541,145.04512 9.59854,-12.6383"
       id="path7"
       inkscape:label="LeftSpeakerAppendix" /></g></svg>
